HIERARCHY
ROOT root
{
	OFFSET 0.000000 0.000000 0.000000
	CHANNELS 6 Xposition Yposition Zposition Zrotation Yrotation Xrotation
	JOINT lhip
	{
		OFFSET 0.058581 -0.082280 -0.017664
		CHANNELS 3 Zrotation Yrotation Xrotation
		JOINT lknee
		{
			OFFSET 0.043451 -0.386469 0.008037
			CHANNELS 3 Zrotation Yrotation Xrotation
			JOINT lankle
			{
				OFFSET -0.014790 -0.426874 -0.037428
				CHANNELS 3 Zrotation Yrotation Xrotation
				JOINT ltoe
				{
					OFFSET 0.041054 -0.060286 0.122042
					CHANNELS 3 Zrotation Yrotation Xrotation
					End Site
					{
						OFFSET 0.000000 0.000000 0.000000
					}
				}
			}
		}
	}
	JOINT rhip
	{
		OFFSET -0.060310 -0.090513 -0.013543
		CHANNELS 3 Zrotation Yrotation Xrotation
		JOINT rknee
		{
			OFFSET -0.043257 -0.383688 -0.004843
			CHANNELS 3 Zrotation Yrotation Xrotation
			JOINT rankle
			{
				OFFSET 0.019056 -0.420046 -0.034562
				CHANNELS 3 Zrotation Yrotation Xrotation
				JOINT rtoe
				{
					OFFSET -0.034840 -0.062106 0.130323
					CHANNELS 3 Zrotation Yrotation Xrotation
					End Site
					{
						OFFSET 0.000000 0.000000 0.000000
					}
				}
			}
		}
	}
	JOINT lowerback
	{
		OFFSET 0.004439 0.124404 -0.038385
		CHANNELS 3 Zrotation Yrotation Xrotation
		JOINT upperback
		{
			OFFSET 0.004488 0.137956 0.026820
			CHANNELS 3 Zrotation Yrotation Xrotation
			JOINT chest
			{
				OFFSET -0.002265 0.056032 0.002855
				CHANNELS 3 Zrotation Yrotation Xrotation
				JOINT lowerneck
				{
					OFFSET -0.013390 0.211636 -0.033468
					CHANNELS 3 Zrotation Yrotation Xrotation
					JOINT upperneck
					{
						OFFSET 0.010113 0.088937 0.050410
						CHANNELS 3 Zrotation Yrotation Xrotation
						End Site
						{
							OFFSET 0.000000 0.000000 0.000000
						}
					}
				}
				JOINT lclavicle
				{
					OFFSET 0.071702 0.114000 -0.018898
					CHANNELS 3 Zrotation Yrotation Xrotation
					JOINT lshoulder
					{
						OFFSET 0.122921 0.045205 -0.019046
						CHANNELS 3 Zrotation Yrotation Xrotation
						JOINT lelbow
						{
							OFFSET 0.255332 -0.015649 -0.022946
							CHANNELS 3 Zrotation Yrotation Xrotation
							JOINT lwrist
							{
								OFFSET 0.265709 0.012698 -0.007375
								CHANNELS 3 Zrotation Yrotation Xrotation
								End Site
								{
									OFFSET 0.000000 0.000000 0.000000
								}
							}
						}
					}
				}
				JOINT rclavicle
				{
					OFFSET -0.082954 0.112472 -0.023707
					CHANNELS 3 Zrotation Yrotation Xrotation
					JOINT rshoulder
					{
						OFFSET -0.113228 0.046853 -0.008472
						CHANNELS 3 Zrotation Yrotation Xrotation
						JOINT relbow
						{
							OFFSET -0.260127 -0.014369 -0.031269
							CHANNELS 3 Zrotation Yrotation Xrotation
							JOINT rwrist
							{
								OFFSET -0.269108 0.006794 -0.006027
								CHANNELS 3 Zrotation Yrotation Xrotation
								End Site
								{
									OFFSET 0.000000 0.000000 0.000000
								}
							}
						}
					}
				}
			}
		}
	}
}
MOTION
Frames: 17
Frame Time: 0.033333
-1.655235 0.453169 1.016811 90.139116 0.096751 89.028688 -1.662400 3.344751 7.815887 1.855456 -14.365949 -7.644269 3.294153 11.773076 -16.630017 0.000000 -0.000000 0.000000 1.095163 -4.546949 5.693123 -4.536302 8.467643 -4.699041 4.947305 -13.214984 -10.405155 0.000000 -0.000000 0.000000 0.632267 0.623145 2.719621 -1.655510 -2.602361 1.358348 -0.562071 -0.253702 5.819968 -2.189003 -4.352592 12.210721 2.009124 -2.527394 -2.412616 0.625171 7.057455 -2.374051 -14.627298 -4.261453 -8.947262 10.801016 -25.474333 -4.290825 -0.332027 -14.651055 6.615473 -4.127547 -1.713022 -4.535537 15.679199 4.036485 -7.649982 -8.307382 20.357404 -7.114260 8.748482 8.513593 -6.059747 
-1.655442 0.451891 1.016721 90.244745 0.034238 89.229946 -1.614247 3.352169 7.523435 1.793074 -14.394994 -7.528265 3.013869 11.764005 -16.678707 0.000000 -0.000000 0.000000 1.164762 -4.432236 5.633263 -4.607239 8.362484 -4.951777 5.210444 -13.423152 -10.380885 0.000000 -0.000000 0.000000 0.779576 0.401933 2.655870 -1.934041 -2.467800 1.336115 -0.501330 -0.225763 5.984936 -2.170222 -4.526622 12.054892 2.032944 -2.396120 -2.316919 0.591300 6.885896 -2.160518 -14.817009 -4.504978 -9.071689 10.736908 -24.912804 -3.977864 -0.910942 -14.683561 6.986879 -4.201279 -1.628538 -4.498162 15.826090 4.008286 -7.731050 -8.254408 19.933564 -7.309678 8.984504 8.607093 -5.573386 
-1.655372 0.450471 1.016785 90.375251 -0.090465 89.303856 -1.619164 3.381729 7.360107 1.720929 -14.355726 -7.401971 2.920131 11.624625 -16.683424 0.000000 -0.000000 0.000000 1.134589 -4.501706 5.740481 -4.651381 8.235442 -5.264186 5.209677 -13.414354 -10.251730 0.000000 -0.000000 0.000000 0.799755 0.391198 2.809818 -2.020384 -2.530958 1.293401 -0.539082 -0.249091 5.949221 -2.207902 -4.545512 12.067316 2.101349 -2.329206 -2.302996 0.493372 6.718281 -2.127424 -14.860338 -4.540297 -9.063322 10.588430 -24.563456 -3.719398 -1.286136 -14.629362 7.305801 -4.224859 -1.538351 -4.444512 15.847523 3.932032 -7.822423 -8.147390 19.589471 -7.208315 9.285017 8.788764 -5.302667 
-1.655084 0.448486 1.016844 90.534916 -0.194940 89.391160 -1.586809 3.328741 7.167231 1.673422 -14.380206 -7.191990 2.844934 11.535300 -16.789453 0.000000 -0.000000 0.000000 1.153102 -4.503622 5.852054 -4.651410 8.173738 -5.555140 5.168529 -13.484936 -10.204498 0.000000 -0.000000 0.000000 0.854386 0.384296 2.911103 -2.098404 -2.572828 1.264625 -0.595427 -0.277221 5.927648 -2.278876 -4.526038 12.085417 2.126008 -2.242057 -2.289148 0.403189 6.595609 -2.100030 -14.943707 -4.564045 -9.041385 10.536272 -24.392076 -3.612389 -1.493546 -14.572551 7.442190 -4.247860 -1.469506 -4.399978 15.872350 3.852432 -7.845624 -8.116451 19.488347 -7.140073 9.548170 8.786030 -5.227232 
-1.654850 0.447180 1.016820 90.599299 -0.231490 89.428622 -1.541878 3.280590 7.082028 1.661973 -14.405131 -7.070135 2.818953 11.515762 -16.865386 0.000000 -0.000000 0.000000 1.188970 -4.482276 5.871477 -4.622022 8.165794 -5.606550 5.126438 -13.517171 -10.242923 0.000000 -0.000000 0.000000 0.881212 0.389605 2.962104 -2.126172 -2.559106 1.253991 -0.615152 -0.287074 5.916333 -2.306930 -4.501187 12.065360 2.107764 -2.206757 -2.270096 0.371646 6.568538 -2.075061 -14.978840 -4.573418 -9.018905 10.525513 -24.409715 -3.543927 -1.566476 -14.549079 7.443974 -4.258995 -1.451070 -4.399526 15.869436 3.847488 -7.872105 -8.088092 19.439050 -7.172178 9.544613 8.794029 -5.327959 
-1.654479 0.445372 1.016752 90.654362 -0.297852 89.449088 -1.497731 3.233378 7.027665 1.653063 -14.442353 -6.958572 2.812431 11.535191 -16.947328 0.000000 -0.000000 0.000000 1.221426 -4.424563 5.887046 -4.576979 8.148632 -5.589954 5.060094 -13.552243 -10.329369 0.000000 -0.000000 0.000000 0.892616 0.384268 3.042062 -2.171136 -2.529021 1.237696 -0.645697 -0.281313 5.890206 -2.335391 -4.411893 12.050389 2.066811 -2.171291 -2.231175 0.332859 6.527342 -2.035361 -14.924040 -4.514703 -9.018233 10.496554 -24.455433 -3.486674 -1.853195 -14.553409 7.487425 -4.261910 -1.376320 -4.364507 15.863288 3.852617 -7.900007 -8.085253 19.402536 -7.230137 9.569976 8.808306 -5.433972 
-1.653864 0.443477 1.016711 90.768686 -0.347733 89.459389 -1.432105 3.217343 7.021386 1.670083 -14.502349 -6.928812 2.776892 11.533944 -16.941726 0.000000 -0.000000 0.000000 1.261879 -4.435252 5.957827 -4.515635 8.109397 -5.643180 4.992106 -13.583005 -10.351051 0.000000 -0.000000 0.000000 0.901278 0.380561 3.079852 -2.202183 -2.523950 1.235560 -0.661645 -0.273864 5.873647 -2.376194 -4.336735 12.042565 2.021818 -2.148865 -2.207520 0.334461 6.495217 -2.036995 -14.843034 -4.480948 -9.044579 10.408398 -24.423728 -3.375295 -2.259328 -14.513578 7.490773 -4.267571 -1.339861 -4.342924 15.840119 3.880964 -7.945813 -8.097378 19.407440 -7.214820 9.734800 8.844255 -5.364763 
-1.653089 0.441655 1.016763 90.937134 -0.399750 89.438477 -1.362666 3.202458 7.082559 1.698486 -14.589677 -6.954565 2.708080 11.514985 -16.894878 0.000000 -0.000000 0.000000 1.305272 -4.448191 6.167528 -4.488952 8.017428 -5.860129 4.934405 -13.636879 -10.265436 0.000000 -0.000000 0.000000 0.895490 0.395030 3.044581 -2.212770 -2.546451 1.298391 -0.669662 -0.258061 5.860499 -2.413486 -4.283645 12.126034 1.989015 -2.156737 -2.126821 0.386405 6.403499 -1.997727 -14.814091 -4.472112 -9.058552 10.375667 -24.301825 -3.319032 -2.478131 -14.437205 7.502279 -4.309248 -1.279350 -4.346971 15.855392 3.869223 -7.982578 -8.117960 19.407287 -7.225471 9.800380 8.886048 -5.434436 
-1.652210 0.439965 1.016846 91.163307 -0.486311 89.448108 -1.321426 3.181441 7.068725 1.684301 -14.684068 -6.895904 2.617972 11.446010 -16.879528 0.000000 -0.000000 0.000000 1.307307 -4.454999 6.413116 -4.480044 7.911309 -6.181367 4.923263 -13.705197 -10.149055 0.000000 -0.000000 0.000000 0.871609 0.415302 3.065560 -2.234807 -2.559221 1.227213 -0.668724 -0.278951 5.815387 -2.445815 -4.232019 12.254801 1.965939 -2.121412 -2.027038 0.422220 6.353821 -1.976067 -14.775545 -4.506799 -9.097160 10.347571 -24.231441 -3.266496 -2.684969 -14.412850 7.449269 -4.356760 -1.277271 -4.321151 15.924769 3.879359 -8.012624 -8.181473 19.368184 -7.365112 9.755822 8.918359 -5.621682 
-1.651335 0.438263 1.017015 91.469057 -0.589939 89.450069 -1.274559 3.066520 6.993531 1.614585 -14.822627 -6.707924 2.385675 11.299984 -17.004704 0.000000 -0.000000 0.000000 1.278540 -4.520520 6.600934 -4.412728 7.870681 -6.338883 4.926188 -13.784489 -10.144407 0.000000 -0.000000 0.000000 0.908201 0.455258 3.072691 -2.247738 -2.611824 1.220262 -0.696339 -0.289336 5.785055 -2.497689 -4.214212 12.304946 1.948308 -2.074946 -1.947278 0.341306 6.328563 -1.980007 -14.799019 -4.567077 -9.135220 10.409871 -24.318973 -3.369586 -2.728978 -14.394618 7.302713 -4.284447 -1.306402 -4.330495 15.925556 3.817860 -8.034752 -8.304527 19.576848 -7.522606 9.668851 8.949999 -5.648971 
-1.650950 0.437048 1.017043 91.588000 -0.627879 89.499819 -1.245310 2.972688 6.903266 1.615228 -14.853181 -6.578280 2.452452 11.337976 -17.121296 0.000000 -0.000000 0.000000 1.307406 -4.502453 6.491341 -4.327414 7.894513 -6.127117 4.860187 -13.836465 -10.310410 0.000000 -0.000000 0.000000 1.005098 0.460644 3.094110 -2.238412 -2.552248 1.194503 -0.714982 -0.287690 5.760771 -2.519859 -4.173574 12.235446 1.887150 -2.005780 -1.877128 0.259349 6.375061 -1.929254 -14.925090 -4.562076 -9.081518 10.474085 -24.557819 -3.391063 -2.696009 -14.385653 7.119284 -4.239794 -1.321375 -4.271387 15.872451 3.805172 -8.036875 -8.284039 19.784547 -7.493891 9.638325 8.969146 -5.677074 
-1.650732 0.435873 1.016898 91.610605 -0.654507 89.577275 -1.208900 2.955890 6.836520 1.636554 -14.900532 -6.545093 2.534204 11.389395 -17.222517 0.000000 -0.000000 0.000000 1.359368 -4.400379 6.283153 -4.255847 7.968288 -5.812369 4.752470 -13.894163 -10.551220 0.000000 -0.000000 0.000000 1.111084 0.443132 3.067856 -2.223567 -2.433598 1.217793 -0.714979 -0.269065 5.758287 -2.504403 -4.094298 12.107660 1.781775 -1.914283 -1.848330 0.143812 6.409063 -1.876948 -15.072236 -4.494578 -8.989974 10.525320 -24.818431 -3.301503 -2.852253 -14.317084 7.063176 -4.190283 -1.283255 -4.196386 15.804500 3.805270 -8.007967 -8.260068 20.019157 -7.337351 9.795732 8.957166 -5.596284 
-1.650497 0.434767 1.016724 91.654386 -0.675109 89.659051 -1.164397 2.933363 6.746730 1.656557 -15.024683 -6.469737 2.538075 11.413306 -17.444777 0.000000 -0.000000 0.000000 1.424786 -4.267342 5.993945 -4.157345 8.073534 -5.306037 4.669733 -13.944794 -11.011337 0.000000 -0.000000 0.000000 1.248678 0.379547 3.110101 -2.207329 -2.345439 1.164069 -0.732867 -0.277182 5.749553 -2.471682 -3.953827 11.953415 1.644232 -1.794429 -1.817467 0.015149 6.499352 -1.852610 -15.267833 -4.398827 -8.917104 10.553597 -25.058856 -3.164027 -3.193672 -14.160048 6.982219 -4.092731 -1.303620 -4.186165 15.820943 3.882027 -7.946753 -8.324916 20.473746 -7.144473 10.122419 8.965796 -5.444714 
-1.650150 0.433522 1.016533 91.700197 -0.681939 89.724505 -1.105343 2.842922 6.639261 1.651348 -15.082598 -6.320135 2.592293 11.436606 -17.629638 0.000000 -0.000000 0.000000 1.487579 -4.129062 5.592754 -3.980452 8.168318 -4.555220 4.520891 -13.986739 -11.548563 0.000000 -0.000000 0.000000 1.342243 0.343560 3.095077 -2.128368 -2.282692 1.219061 -0.735333 -0.318591 5.744961 -2.393168 -3.762018 11.763396 1.489187 -1.721462 -1.767724 -0.148656 6.551457 -1.778782 -15.508155 -4.288167 -8.845618 10.649576 -25.242439 -3.201301 -3.549111 -13.986173 6.715268 -3.943119 -1.325923 -4.121572 15.898193 3.990138 -7.912856 -8.478132 21.080393 -7.199925 10.291519 9.049142 -5.603914 
-1.649477 0.432105 1.016492 91.715855 -0.714314 89.763610 -1.071814 2.785009 6.627927 1.677208 -15.059700 -6.290234 2.586265 11.461512 -17.658941 0.000000 -0.000000 0.000000 1.534971 -3.940634 5.299536 -3.835991 8.206942 -3.949676 4.393933 -14.069239 -11.904624 0.000000 -0.000000 0.000000 1.402727 0.287746 3.167669 -2.078873 -2.217910 1.227432 -0.731881 -0.340496 5.719916 -2.309933 -3.584886 11.549853 1.376524 -1.616096 -1.728701 -0.311538 6.601020 -1.730936 -15.747098 -4.176227 -8.767952 10.622307 -25.378526 -3.164014 -3.701921 -13.871904 6.500050 -3.731787 -1.373070 -4.111011 16.062041 4.121698 -7.773908 -8.620449 21.792442 -7.192840 10.322437 9.095565 -5.581061 
-1.648449 0.430667 1.016461 91.759276 -0.767078 89.819522 -1.063047 2.741965 6.639573 1.724154 -15.120559 -6.265825 2.565359 11.505071 -17.837872 0.000000 -0.000000 0.000000 1.550239 -3.760548 5.158417 -3.712808 8.221249 -3.581214 4.359940 -14.076772 -12.283163 0.000000 -0.000000 0.000000 1.435781 0.230819 3.126194 -2.011686 -2.211609 1.303976 -0.716117 -0.388320 5.750036 -2.295380 -3.367467 11.346487 1.212059 -1.446974 -1.787017 -0.446980 6.742881 -1.611089 -16.286867 -4.007218 -8.573660 10.685825 -25.837793 -3.032982 -3.466891 -13.746894 6.164692 -3.522342 -1.525883 -4.083610 16.414262 4.223098 -7.487645 -8.797980 23.069111 -6.806861 10.171053 9.142568 -5.346423 
-1.647112 0.429108 1.016274 91.870034 -0.839313 89.934146 -1.093515 2.619293 6.392344 1.679923 -15.290557 -5.799090 2.606714 11.611677 -18.424666 0.000000 -0.000000 0.000000 1.532040 -3.637154 5.041297 -3.580909 8.335981 -3.301385 4.357282 -14.043614 -12.861600 0.000000 -0.000000 0.000000 1.449464 0.172331 3.097955 -1.914248 -2.280480 1.295983 -0.709193 -0.455475 5.792800 -2.330962 -3.061303 11.004709 0.981215 -1.237725 -1.890703 -0.567152 7.115476 -1.419620 -17.234501 -3.718745 -8.211320 10.822559 -27.151520 -2.762540 -2.812362 -13.565720 5.240493 -3.254085 -1.905341 -4.012628 17.054695 4.231181 -6.942787 -9.014230 25.453810 -6.244837 9.592574 9.103957 -5.407226 
